
Format : AVI
Format/Info : Audio Video Interleave
File size : 1.91 GiB
Duration : 2h 15mn
Overall bit rate : 2 014 Kbps
Writing library : VirtualDub build 32842/release

Video
ID : 0
Format : MPEG-4 Visual
Format profile : Advanced Simple@L5
Format settings, BVOP : 2
Format settings, QPel : No
Format settings, GMC : No warppoints
Format settings, Matrix : Default (H.263)
Muxing mode : Packed bitstream
Codec ID : XVID
Codec ID/Hint : XviD
Duration : 2h 15mn
Bit rate : 1 618 Kbps
Width : 720 pixels
Height : 304 pixels
Display aspect ratio : 2.35:1
Frame rate : 29.970 fps
Color space : YUV
Chroma subsampling : 4:2:0
Bit depth : 8 bits
Scan type : Progressive
Compression mode : Lossy
Bits/(Pixel*Frame) : 0.247
Stream size : 1.53 GiB (80%)
Writing library : XviD 64

Audio
ID : 1
Format : AC-3
Format/Info : Audio Coding 3
Mode extension : CM (complete main)
Codec ID : 2000
Duration : 2h 15mn
Bit rate mode : Constant
Bit rate : 384 Kbps
Channel(s) : 6 channels
Channel positions : Front: L C R, Side: L R, LFE
Sampling rate : 48.0 KHz
Bit depth : 16 bits
Compression mode : Lossy
Stream size : 372 MiB (19%)
Alignment : Aligned on interleaves
Interleave, duration : 33 ms (1.00 video frame)
Interleave, preload duration : 512 ms







 
http://www.imdb.com/title/tt1298650/









Users: (56,087 votes) 369 reviews | Critics: 328 reviews Metascore: 45/100 (based on 39 reviews from Metacritic.com)


Jack Sparrow and Barbossa embark on a quest to find the elusive fountain of youth, only to discover that Blackbeard and his daughter are after it too.

Director: Rob Marshall
Writers: Ted Elliott (screenplay), Terry Rossio (screenplay), and 7 more credits »
Stars: Johnny Depp, Penélope Cruz and Ian McShane





















Source Used


Pirates Of The Caribbean On Stranger Tides DVDR-MPTDVD....Thanks



If you think the files too big tough ! I wasnt going for a 1.39gb file on such a long movie.Maybe over did it but its up to you take or dont


Enjoy





Greetz to IMAGiNE,Flawl3ss,DiLLoN,BDK,NOiR,TOXiC,THC,Ez,Rx,Boobyblue,TaRiQ786